<svg width="13" height="13" viewBox="0 0 13 13" fill="none" xmlns="http://www.w3.org/2000/svg">
<path d="M11.0072 12.2733L6.96057 8.22795L2.91398 12.2733C2.80795 12.3798 2.68193 12.4643 2.54315 12.522C2.40437 12.5796 2.25556 12.6093 2.10528 12.6093C1.955 12.6093 1.8062 12.5796 1.66742 12.522C1.52864 12.4643 1.40261 12.3798 1.29658 12.2733C1.19008 12.1673 1.10558 12.0412 1.04792 11.9025C0.990254 11.7637 0.960571 11.6149 0.960571 11.4646C0.960571 11.3143 0.990254 11.1655 1.04792 11.0267C1.10558 10.888 1.19008 10.7619 1.29658 10.6559L5.34194 6.60931L1.29658 2.56273C1.19008 2.45669 1.10558 2.33067 1.04792 2.19189C0.990254 2.05311 0.960571 1.90431 0.960571 1.75402C0.960571 1.60374 0.990254 1.45494 1.04792 1.31616C1.10558 1.17738 1.19008 1.05136 1.29658 0.945323C1.40261 0.838826 1.52864 0.754321 1.66742 0.696659C1.8062 0.638997 1.955 0.609314 2.10528 0.609314C2.25556 0.609314 2.40437 0.638997 2.54315 0.696659C2.68193 0.754321 2.80795 0.838826 2.91398 0.945323L6.96057 4.99068L11.0072 0.945323C11.1132 0.838826 11.2392 0.754321 11.378 0.696659C11.5168 0.638997 11.6656 0.609314 11.8159 0.609314C11.9661 0.609314 12.1149 0.638997 12.2537 0.696659C12.3925 0.754321 12.5185 0.838826 12.6246 0.945323C12.7311 1.05136 12.8156 1.17738 12.8732 1.31616C12.9309 1.45494 12.9606 1.60374 12.9606 1.75402C12.9606 1.90431 12.9309 2.05311 12.8732 2.19189C12.8156 2.33067 12.7311 2.45669 12.6246 2.56273L8.57921 6.60931L12.6246 10.6559C12.7311 10.7619 12.8156 10.888 12.8732 11.0267C12.9309 11.1655 12.9606 11.3143 12.9606 11.4646C12.9606 11.6149 12.9309 11.7637 12.8732 11.9025C12.8156 12.0412 12.7311 12.1673 12.6246 12.2733C12.5185 12.3798 12.3925 12.4643 12.2537 12.522C12.1149 12.5796 11.9661 12.6093 11.8159 12.6093C11.6656 12.6093 11.5168 12.5796 11.378 12.522C11.2392 12.4643 11.1132 12.3798 11.0072 12.2733Z" fill="#888888"/>
</svg>
